<svg width="582" height="582" viewBox="0 0 582 582" fill="none" xmlns="http://www.w3.org/2000/svg">
<path d="M435.123 48.7295C384.942 48.7295 340.614 73.9215 314.125 112.308C314.125 112.308 305.18 125.692 290.994 125.692C276.82 125.692 267.875 112.308 267.875 112.308C241.373 73.9215 197.071 48.7295 146.877 48.7295C65.7538 48.7295 0 114.483 0 195.632C0 214.793 3.76608 233.026 10.4331 249.808C51.5801 377.575 235.609 527.786 290.994 533.269C346.391 527.786 530.394 377.575 571.567 249.808C578.234 233.039 582 214.793 582 195.632C582 114.483 516.246 48.7295 435.123 48.7295Z" fill="#F91880"/>
</svg>
