<svg width="491" height="491" viewBox="0 0 491 491" fill="none" xmlns="http://www.w3.org/2000/svg">
<g clip-path="url(#clip0_250:842)">
<path d="M222.5 453.7C228.6 459.8 236.8 463.2 245.4 463.2C253.9 463.2 262.3 459.7 268.3 453.7L448 274C475.3 246.7 490.3 210.4 490.4 171.9C490.4 133.3 475.4 96.9999 448.1 69.6999C420.8 42.3999 384.6 27.4 346 27.4C308.1 27.4 272.4 41.9 245.3 68.3C218.1 41.8 182.3 27.2 144.3 27.2C105.8 27.2 69.6 42.2 42.3 69.4C15 96.7 0 133 0 171.6C0 210.1 15.1 246.4 42.4 273.7L222.5 453.7ZM59.7 86.8C82.3 64.2 112.4 51.7 144.4 51.7C176.4 51.7 206.6 64.2 229.3 86.9L236.7 94.3C239 96.6 242.1 97.8999 245.4 97.8999C248.6 97.8999 251.8 96.6 254.1 94.3L261.3 87.0999C284 64.3999 314.1 51.9 346.2 51.9C378.2 51.9 408.3 64.4 430.9 87C453.6 109.7 466 139.8 466 171.8C466 203.8 453.5 233.9 430.8 256.6L251 436.4C248.1 439.3 242.8 439.3 239.8 436.4L59.8 256.4C37.1 233.7 24.6 203.6 24.6 171.6C24.6 139.6 37.1 109.5 59.7 86.8Z" fill="#D8D8D8"/>
</g>
<defs>
<clipPath id="clip0_250:842">
<rect width="490.4" height="490.4" fill="white"/>
</clipPath>
</defs>
</svg>
