<svg width="608" height="608" viewBox="0 0 608 608" fill="none" xmlns="http://www.w3.org/2000/svg">
<path d="M266.762 127.427C268.629 125.688 270.126 123.59 271.164 121.26C272.203 118.929 272.761 116.413 272.806 113.862C272.851 111.311 272.382 108.777 271.426 106.411C270.471 104.045 269.048 101.896 267.244 100.092C265.44 98.2876 263.291 96.8653 260.925 95.9097C258.559 94.9541 256.025 94.4848 253.474 94.5298C250.923 94.5748 248.407 95.1332 246.076 96.1717C243.746 97.2101 241.648 98.7074 239.909 100.574L81.5752 258.907C78.0171 262.47 76.0186 267.299 76.0186 272.334C76.0186 277.369 78.0171 282.198 81.5752 285.761L239.909 444.094C241.648 445.961 243.746 447.458 246.076 448.497C248.407 449.535 250.923 450.093 253.474 450.138C256.025 450.183 258.559 449.714 260.925 448.759C263.291 447.803 265.44 446.381 267.244 444.576C269.048 442.772 270.471 440.623 271.426 438.257C272.382 435.891 272.851 433.357 272.806 430.806C272.761 428.255 272.203 425.739 271.164 423.408C270.126 421.078 268.629 418.98 266.762 417.241L140.855 291.334H430.669C441.478 291.327 452.183 293.451 462.172 297.583C472.161 301.715 481.238 307.775 488.884 315.416C496.53 323.058 502.595 332.131 506.734 342.117C510.872 352.103 513.002 362.807 513.002 373.617V487.667C513.002 492.707 515.004 497.539 518.567 501.103C522.13 504.666 526.963 506.667 532.002 506.667C537.041 506.667 541.874 504.666 545.437 501.103C549 497.539 551.002 492.707 551.002 487.667V373.617C551.002 357.817 547.889 342.172 541.841 327.575C535.793 312.978 526.929 299.716 515.754 288.546C504.579 277.376 491.313 268.517 476.714 262.476C462.115 256.434 446.469 253.327 430.669 253.334H140.855L266.762 127.427Z" fill="#C4C4C4"/>
</svg>
