<svg width="716" height="716" viewBox="0 0 716 716" fill="none" xmlns="http://www.w3.org/2000/svg">
<path d="M95.0938 385.969H139.564C142.641 385.969 145.158 383.452 145.158 380.375V201.864H514.765V252.628C514.765 253.956 515.184 255.215 516.023 256.264C516.495 256.868 517.08 257.372 517.747 257.749C518.415 258.125 519.15 258.366 519.91 258.457C520.671 258.548 521.441 258.487 522.179 258.279C522.916 258.07 523.604 257.718 524.204 257.243L624.402 178.58C627.409 175.084 626.92 171.378 624.402 169.351L524.204 90.7585C523.173 89.9338 521.889 89.4893 520.568 89.4999C517.352 89.4999 514.695 92.157 514.695 95.3734V146.137H139.634C112.015 146.137 89.5 168.652 89.5 196.341V380.375C89.5 383.452 92.0172 385.969 95.0938 385.969ZM620.906 330.031H576.436C573.359 330.031 570.842 332.548 570.842 335.625V514.135H201.235V463.372C201.235 462.044 200.816 460.785 199.977 459.736C199.505 459.132 198.92 458.628 198.253 458.251C197.585 457.875 196.85 457.634 196.09 457.543C195.329 457.452 194.559 457.513 193.821 457.721C193.084 457.929 192.396 458.282 191.796 458.757L91.5977 537.419C88.591 540.916 89.0805 544.621 91.5977 546.649L191.796 625.241C192.845 626.08 194.103 626.5 195.432 626.5C198.648 626.5 201.305 623.843 201.305 620.626V569.863H576.506C604.125 569.863 626.64 547.348 626.64 519.659V335.625C626.5 332.548 623.983 330.031 620.906 330.031Z" fill="#C4C4C4"/>
</svg>
