<svg width="465" height="465" viewBox="0 0 465 465" fill="none" xmlns="http://www.w3.org/2000/svg">
<path d="M370.656 290.363C339.838 290.363 312.698 306.412 297.154 330.59L174.843 266.325C179.233 255.917 181.662 244.487 181.662 232.501C181.662 220.515 179.233 209.085 174.843 198.677L297.154 134.412C312.699 158.59 339.838 174.639 370.656 174.639C418.804 174.639 457.975 135.468 457.975 87.321C457.975 39.171 418.804 0 370.656 0C322.509 0 283.338 39.171 283.338 87.319C283.338 99.306 285.767 110.735 290.157 121.143L167.846 185.408C152.301 161.23 125.162 145.181 94.3439 145.181C46.1969 145.181 7.02588 184.352 7.02588 232.5C7.02588 280.648 46.1969 319.819 94.3439 319.819C125.162 319.819 152.302 303.77 167.846 279.592L290.157 343.857C285.767 354.265 283.338 365.695 283.338 377.681C283.338 425.829 322.509 465 370.656 465C418.804 465 457.975 425.829 457.975 377.681C457.975 329.534 418.804 290.363 370.656 290.363ZM370.656 15C410.533 15 442.975 47.442 442.975 87.319C442.975 127.195 410.533 159.637 370.656 159.637C330.779 159.637 298.338 127.195 298.338 87.319C298.337 47.442 330.779 15 370.656 15ZM94.3429 304.819C54.4669 304.819 22.0249 272.377 22.0249 232.5C22.0249 192.623 54.4669 160.181 94.3429 160.181C134.219 160.181 166.661 192.623 166.661 232.5C166.661 272.377 134.219 304.819 94.3429 304.819ZM370.656 450C330.779 450 298.338 417.558 298.338 377.681C298.338 337.805 330.779 305.363 370.656 305.363C410.533 305.363 442.975 337.805 442.975 377.681C442.975 417.558 410.533 450 370.656 450Z" fill="#C4C4C4"/>
</svg>
